# xmcd CD database file
#
# Track frame offsets:
#	150
#	16672
#	32590
#	46066
#	59578
#	77145
#	87349
#	101689
#	114928
#	131531
#	146739
#	167381
#	180576
#	191346
#	206732
#
# Disc length: 2913 seconds
#
# Revision: 0
# Processed by: cddbd v1.5.2PL0 Copyright (c) Steve Scherf et al.
# Submitted via: CDex 1.51
#
DISCID=bd0b5f0f
DTITLE=Canal Street Syncopators - No Strings
DYEAR=2006
DGENRE=Jazz
TTITLE0=After I Say I'm Sorry
TTITLE1=Rain
TTITLE2=I'd Love It
TTITLE3=I Go For That
TTITLE4=Breakaway
TTITLE5=Ráda Zpívám Hot
TTITLE6=It Don't Mean a Thing If It Ain't Got That Swing
TTITLE7=Meditation
TTITLE8=Come On Baby
TTITLE9=No Strings
TTITLE10=Moonglow
TTITLE11=Pacific Express
TTITLE12=Trickeration
TTITLE13=You Ought To See Sally On Sunday
TTITLE14=Anything Goes
EXTD=YEAR: 2006
EXTT0=
EXTT1=
EXTT2=
EXTT3=
EXTT4=
EXTT5=
EXTT6=
EXTT7=
EXTT8=
EXTT9=
EXTT10=
EXTT11=
EXTT12=
EXTT13=
EXTT14=
PLAYORDER=
